<svg version="1.2" xmlns="http://www.w3.org/2000/svg" viewBox="0 0 150 150" width="150" height="150">
	<title>goldenCard</title>
	<style>
		.s0 { fill: #b19b46 } 
	</style>
	<path id="&lt;Path&gt;" class="s0" d="m148.9 98.9c0 6.6-1.8 12.8-4.8 18.1-6.3 11.2-18.3 18.8-32.1 18.8-14.7 0-27.4-8.7-33.3-21.2q0 1.6 0.1 3.2c0.3 5.4 1.4 10.7 3.5 16.1 1.1 2.7 2.4 5.4 4.1 8q1.2 2.1 2.8 4.1c1 1.3 2.1 2.7 3.6 4h-35.2c1.4-1.3 2.6-2.7 3.6-4q1.6-2 2.8-4.1c1.7-2.6 3-5.3 4-8 2.2-5.4 3.3-10.7 3.6-16.1q0.1-1.6 0.1-3.2c-5.9 12.5-18.6 21.2-33.3 21.2-20.4 0-36.9-16.5-36.9-36.9 0-20.3 16.5-36.8 36.9-36.8 4.2 0 8.3 0.7 12 2-7.4-6.7-12-16.4-12-27.3 0-7.9 2.4-15.2 6.7-21.2 6.7-9.4 17.7-15.6 30.1-15.6 20.3 0 36.8 16.5 36.8 36.8 0 10.9-4.6 20.6-12.1 27.3 3.8-1.3 7.9-2 12.1-2 20.4 0 36.9 16.5 36.9 36.8z"/>
</svg>